{"title":"Three Extremes Combo Pack 2002 2004 English Subtitles DVDRip Xvi","uid":10412199,"size":2412010041,"categoryP":"video","categoryS":"movies","magnet":"?xt=urn:btih:bbaa4f92e73f37c7456db3a1393cc04511a7995b&amp;dn=Three+Extremes+Combo+Pack+2002+2004+English+Subtitles+DVDRip+Xvi&amp;tr=udp%3A%2F%2Ftracker.openbittorrent.com%3A80&amp;tr=udp%3A%2F%2Fopen.demonii.com%3A1337&amp;tr=udp%3A%2F%2Ftracker.coppersurfer.tk%3A6969&amp;tr=udp%3A%2F%2Fexodus.desync.com%3A6969","seeders":28,"leechers":4,"uploader":".BONE.","files":3,"time":1403555017,"description":"Three Extremes II 2002\n&quot;Saam gaang&quot; (original title)\nRuntime ..........: 2h 8mn\nFile Size ........: 1.27 GB\nResolution .......: 720 x 480 &lt;a href=&quot;\nhttp://www.imdb.com/title/tt0324242/&quot; rel=&quot;nofollow&quot; target=&quot;_NEW&quot;&gt;\nhttp://www.imdb.com/title/tt0324242/&lt;/a&gt;\nGenre ............: Horror,Mystery\nLanguage .........: Cantonese,Japanese,Korean,Mandarin\nSubtitles ........: English\nComplete name : Three Extremes 2002 DVDRip English Subtitles Xvid LKRG3EXTRM2_LKRG.avi\nFormat : AVI\nFormat/Info : Audio Video Interleave\nFile size : 1.27 GiB\nDuration : 2h 8mn\nOverall bit rate : 1 407 Kbps\nWriting application : VirtualDubMod 1.5.10.2 (build 2540/release)\nWriting library : VirtualDubMod build 2540/release\nVideo\nID : 0\nFormat : MPEG-4 Visual\nFormat profile : Advanced Simple@L5\nFormat settings, BVOP : 2\nFormat settings, QPel : No\nFormat settings, GMC : No warppoints\nFormat settings, Matrix : Default (H.263)\nMuxing mode : Packed bitstream\nCodec ID : XVID\nCodec ID/Hint : XviD\nDuration : 2h 8mn\nBit rate : 1 174 Kbps\nWidth : 720 pixels\nHeight : 480 pixels\nDisplay aspect ratio : 16:9\nFrame rate : 23.976 fps\nStandard : NTSC\nColor space : YUV\nChroma subsampling : 4:2:0\nBit depth : 8 bits\nScan type : Progressive\nCompression mode : Lossy\nBits/(Pixel*Frame) : 0.142\nStream size : 1.06 GiB (83%)\nWriting library : XviD 1.2.1 (UTC 2008-12-04)\nAudio\nID : 1\nFormat : AC-3\nFormat/Info : Audio Coding 3\nMode extension : CM (complete main)\nFormat settings, Endianness : Big\nCodec ID : 2000\nDuration : 2h 8mn\nBit rate mode : Constant\nBit rate : 224 Kbps\nChannel(s) : 2 channels\nChannel positions : Front: L R\nSampling rate : 48.0 KHz\nBit depth : 16 bits\nCompression mode : Lossy\nStream size : 206 MiB (16%)\nAlignment : Split accross interleaves\nInterleave, duration : 42 ms (1.00 video frame)\nInterleave, preload duration : 500 ms\n\n\nThree Extremes 2004\n&quot;Saam gaang yi&quot; (original title)\nRuntime ..........: 2h 6mn\nFile Size ........: 1003 MB\nResolution .......: 720 x 480 &lt;a href=&quot;\nhttp://www.imdb.com/title/tt0420251/&quot; rel=&quot;nofollow&quot; target=&quot;_NEW&quot;&gt;\nhttp://www.imdb.com/title/tt0420251/&lt;/a&gt;\nGenre ............: Horror\nLanguage .........: Korean,Mandarin,Thai,Cantonese\nSubtitles ........: English\nComplete name : Three Extremes 2004 DVDRip English Subtitles Xvid LKRG3EXTRM_LKRG.avi\nFormat : AVI\nFormat/Info : Audio Video Interleave\nFile size : 1 003 MiB\nDuration : 2h 6mn\nOverall bit rate : 1 109 Kbps\nWriting application : VirtualDubMod 1.5.10.2 (build 2540/release)\nWriting library : VirtualDubMod build 2540/release\nVideo\nID : 0\nFormat : MPEG-4 Visual\nFormat profile : Advanced Simple@L5\nFormat settings, BVOP : 2\nFormat settings, QPel : No\nFormat settings, GMC : No warppoints\nFormat settings, Matrix : Default (H.263)\nMuxing mode : Packed bitstream\nCodec ID : XVID\nCodec ID/Hint : XviD\nDuration : 2h 6mn\nBit rate : 876 Kbps\nWidth : 720 pixels\nHeight : 480 pixels\nDisplay aspect ratio : 16:9\nFrame rate : 23.976 fps\nStandard : NTSC\nColor space : YUV\nChroma subsampling : 4:2:0\nBit depth : 8 bits\nScan type : Progressive\nCompression mode : Lossy\nBits/(Pixel*Frame) : 0.106\nStream size : 792 MiB (79%)\nWriting library : XviD 1.2.1 (UTC 2008-12-04)\nAudio\nID : 1\nFormat : AC-3\nFormat/Info : Audio Coding 3\nMode extension : CM (complete main)\nFormat settings, Endianness : Big\nCodec ID : 2000\nDuration : 2h 6mn\nBit rate mode : Constant\nBit rate : 224 Kbps\nChannel(s) : 2 channels\nChannel positions : Front: L R\nSampling rate : 48.0 KHz\nBit depth : 16 bits\nCompression mode : Lossy\nStream size : 203 MiB (20%)\nAlignment : Split accross interleaves\nInterleave, duration : 42 ms (1.00 video frame)\nInterleave, preload duration : 500 m","torrent":{"xt":"urn:btih:bbaa4f92e73f37c7456db3a1393cc04511a7995b","amp;dn":"Three+Extremes+Combo+Pack+2002+2004+English+Subtitles+DVDRip+Xvi","amp;tr":["udp%3A%2F%2Ftracker.openbittorrent.com%3A80","udp%3A%2F%2Fopen.demonii.com%3A1337","udp%3A%2F%2Ftracker.coppersurfer.tk%3A6969","udp%3A%2F%2Fexodus.desync.com%3A6969"],"infoHash":"bbaa4f92e73f37c7456db3a1393cc04511a7995b","infoHashBuffer":{"type":"Buffer","data":[187,170,79,146,231,63,55,199,69,109,179,161,57,60,192,69,17,167,153,91]},"announce":[],"urlList":[]}}